<?xml version="1.0" encoding="UTF-8" standalone="no"?>
<!-- Generator: Adobe Illustrator 16.0.0, SVG Export Plug-In . SVG Version: 6.00 Build 0)  -->

<svg
   xmlns:dc="http://purl.org/dc/elements/1.1/"
   xmlns:cc="http://creativecommons.org/ns#"
   xmlns:rdf="http://www.w3.org/1999/02/22-rdf-syntax-ns#"
   xmlns:svg="http://www.w3.org/2000/svg"
   xmlns="http://www.w3.org/2000/svg"
   xmlns:sodipodi="http://sodipodi.sourceforge.net/DTD/sodipodi-0.dtd"
   xmlns:inkscape="http://www.inkscape.org/namespaces/inkscape"
   version="1.1"
   id="Layer_1"
   x="0px"
   y="0px"
   width="512px"
   height="512px"
   viewBox="0 0 512 512"
   enable-background="new 0 0 512 512"
   xml:space="preserve"
   inkscape:version="0.48.4 r9939"
   sodipodi:docname="light-bulb.svg"><metadata
     id="metadata9"><rdf:RDF><cc:Work
         rdf:about=""><dc:format>image/svg+xml</dc:format><dc:type
           rdf:resource="http://purl.org/dc/dcmitype/StillImage" /></cc:Work></rdf:RDF></metadata><defs
     id="defs7" /><sodipodi:namedview
     pagecolor="#ffffff"
     bordercolor="#666666"
     borderopacity="1"
     objecttolerance="10"
     gridtolerance="10"
     guidetolerance="10"
     inkscape:pageopacity="0"
     inkscape:pageshadow="2"
     inkscape:window-width="640"
     inkscape:window-height="480"
     id="namedview5"
     showgrid="false"
     inkscape:zoom="0.4609375"
     inkscape:cx="256"
     inkscape:cy="256"
     inkscape:window-x="0"
     inkscape:window-y="0"
     inkscape:window-maximized="0"
     inkscape:current-layer="Layer_1" /><path
     d="M320,416c0,8.844-7.156,16-16,16h-96c-8.844,0-16-7.156-16-16s7.156-16,16-16h96C312.844,400,320,407.156,320,416z M304,448  h-96c-8.844,0-16,7.156-16,16s7.156,16,16,16c0,17.688,14.313,32,32,32h32c17.688,0,32-14.313,32-32c8.844,0,16-7.156,16-16  S312.844,448,304,448z M256,32c70.594,0,128,57.438,128,128c0,45.625-23.969,86.813-64.094,110.156L304,279.406v18.406V352h-96  v-54.188v-18.375l-15.906-9.281C151.938,246.781,128,205.594,128,160C128,89.438,185.438,32,256,32 M256,0  C167.625,0,96,71.625,96,160c0,59.063,32.375,110.063,80,137.813V352c0,17.688,14.313,32,32,32h96c17.656,0,32-14.313,32-32v-54.188  c47.625-27.719,80-78.75,80-137.813C416,71.625,344.375,0,256,0L256,0z"
     id="path3"
     style="fill:#cccccc" /></svg>