<?xml version="1.0" encoding="UTF-8" standalone="no"?>
<!-- Svg Vector Icons : http://www.onlinewebfonts.com/icon -->

<svg
   xmlns:dc="http://purl.org/dc/elements/1.1/"
   xmlns:cc="http://creativecommons.org/ns#"
   xmlns:rdf="http://www.w3.org/1999/02/22-rdf-syntax-ns#"
   xmlns:svg="http://www.w3.org/2000/svg"
   xmlns="http://www.w3.org/2000/svg"
   xmlns:sodipodi="http://sodipodi.sourceforge.net/DTD/sodipodi-0.dtd"
   xmlns:inkscape="http://www.inkscape.org/namespaces/inkscape"
   version="1.1"
   x="0px"
   y="0px"
   viewBox="0 0 1000 1000"
   enable-background="new 0 0 1000 1000"
   xml:space="preserve"
   id="svg2"
   inkscape:version="0.48.4 r9939"
   width="100%"
   height="100%"
   sodipodi:docname="rabit.svg"><defs
     id="defs22" /><sodipodi:namedview
     pagecolor="#ffffff"
     bordercolor="#666666"
     borderopacity="1"
     objecttolerance="10"
     gridtolerance="10"
     guidetolerance="10"
     inkscape:pageopacity="0"
     inkscape:pageshadow="2"
     inkscape:window-width="640"
     inkscape:window-height="480"
     id="namedview20"
     showgrid="false"
     inkscape:zoom="0.236"
     inkscape:cx="500"
     inkscape:cy="500"
     inkscape:window-x="0"
     inkscape:window-y="0"
     inkscape:window-maximized="0"
     inkscape:current-layer="svg2" /><metadata
     id="metadata4"> Svg Vector Icons : http://www.onlinewebfonts.com/icon <rdf:RDF><cc:Work
     rdf:about=""><dc:format>image/svg+xml</dc:format><dc:type
       rdf:resource="http://purl.org/dc/dcmitype/StillImage" /></cc:Work></rdf:RDF></metadata><g
     id="g6"
     style="fill:#cccccc"><g
       transform="translate(0.000000,502.000000) scale(0.100000,-0.100000)"
       id="g8"
       style="fill:#cccccc"><path
         d="M4565.8,4803.4c-408-53.6-609.1-130.3-768.1-289.2c-124.5-124.5-170.5-247.1-170.5-459.7c0-132.2,7.7-164.7,51.7-241.4c67-114.9,136-172.4,308.4-256.7c314.1-153.2,670.4-191.5,1250.8-134.1c385,38.3,791.1,32.6,1055.4-17.2c314.1-57.5,695.3-218.4,885-373.5l65.1-53.6l-80.4-101.5c-84.3-107.3-182-285.4-243.3-450.1c-78.5-208.8-243.3-296.9-486.5-256.7c-67,9.6-337.1,91.9-601.5,180c-264.3,90-559.3,180.1-655.1,201.1c-616.8,134.1-1214.4,67-1735.4-193.5c-331.4-164.7-687.7-473.1-892.6-770c-170.5-247.1-306.5-553.6-386.9-871.5c-13.4-51.7-30.6-80.5-44.1-72.8c-227.9,99.6-279.7,113-465.5,122.6c-145.6,5.8-220.3,0-306.5-24.9C911.1,616.2,664,267.5,690.8-180.7c11.5-199.2,76.6-333.3,233.7-484.6c203-193.5,409.9-272,729.8-272c145.6,0,227.9,9.6,344.8,44.1l151.3,44L2296-994.7c103.4-103.4,185.8-164.7,296.9-222.2c281.6-143.7,461.6-191.6,1145.4-312.2c212.6-36.4,358.2-88.1,386.9-134.1c30.6-49.8-42.1-166.6-218.4-352.4c-103.4-109.2-206.9-237.5-231.8-287.3c-86.2-182-49.8-411.8,91.9-568.9c151.3-168.6,358.2-243.2,823.6-293.1c285.4-32.5,477-90,720.2-218.3c268.2-139.9,411.8-279.7,685.7-664.7c287.3-402.2,490.4-561.2,867.7-681.9c340.9-109.2,649.3-42.1,771.9,164.7c40.2,70.9,44,92,36.4,306.5c-7.7,182-19.2,264.4-61.3,392.7c-162.8,509.5-526.7,915.6-1118.6,1254.6L6282-2492.6l132.2,90C7427.5-1728.4,7996.4-763,8078.7,424.6c9.6,126.4,21.1,235.6,26.8,241.3c5.7,5.7,42.1-3.8,82.4-21.1c264.3-109.2,762.4-157.1,1040.1-97.7c287.3,61.3,499.9,199.2,574.6,373.5c162.8,379.3,114.9,1114.8-95.8,1513.2c-256.7,480.8-678.1,779.6-1231.7,873.5c-93.8,15.3-226,28.7-296.9,28.7l-126.4,1.9l-63.2,91.9c-409.9,607.2-1283.4,1130.1-2225.8,1337c-185.8,40.2-281.6,47.9-612.9,53.6C4899.1,4824.5,4688.4,4818.7,4565.8,4803.4z M5542.7,4399.2c875.4-143.7,1781.4-666.6,2147.2-1239.3c51.7-80.4,114.9-159,141.8-174.3c30.6-17.2,136-32.6,281.6-40.2c511.4-28.7,865.8-185.8,1103.3-488.4c208.8-264.3,268.2-467.4,270.1-930.9c1.9-289.2-1.9-333.3-36.4-402.2c-76.6-153.2-367.8-237.5-697.2-199.2c-245.2,28.7-371.6,65.1-612.9,183.9c-178.1,84.3-231.8,103.4-285.4,93.9c-139.8-21.1-180.1-109.2-164.7-360.1c23-337.1-46-835.1-166.6-1220.2c-78.5-245.2-256.7-601.4-415.7-825.6c-226-319.9-591.9-658.9-973.1-904.1c-218.4-139.8-237.5-143.7-120.7-23c206.9,218.4,346.7,431,446.3,680c145.6,369.7,176.2,860,78.5,1231.6c-44.1,166.7-166.7,417.6-279.7,568.9c-183.9,249-521,511.4-678.1,530.6c-74.7,7.7-91.9,1.9-143.7-49.8c-44.1-44.1-57.5-74.7-57.5-132.2c0-95.8,38.3-147.5,170.5-229.9c178.1-113,421.4-375.4,503.8-542.1c107.3-218.3,136-354.4,136-632.1c1.9-582.3-235.6-1015.2-777.7-1415.5c-197.3-147.5-235.6-197.3-216.4-300.7c17.2-90,84.3-137.9,264.3-189.6c222.2-65.1,486.5-168.5,695.3-272c689.6-346.7,1093.7-844.7,1124.4-1384.9l5.7-105.4l-76.6-5.7c-99.6-9.6-296.9,44-431,113c-170.5,90-275.8,195.4-473.1,473.1c-358.2,507.6-632.1,724-1174.2,921.3c-170.5,63.2-203,69-526.7,107.3c-386.9,46-545.9,103.4-572.7,212.6c-17.2,65.1,11.5,105.4,208.8,306.5c174.3,176.2,250.9,304.6,275.8,465.4c34.5,212.6-46,385-227.9,494.2c-130.2,78.5-249,113-584.2,168.5c-668.5,113-936.7,208.8-1139.7,411.8c-42.1,42.2-91.9,109.2-113,151.3c-90,174.3-168.6,185.8-471.2,76.6c-143.7-51.7-201.1-61.3-339-63.2c-151.3,0-176.2,3.8-295,65.1C1131.4-364.6,1062.4-242,1095-35.1c38.3,258.6,220.3,402.3,509.5,402.3c233.7,0,400.3-91.9,490.4-268.2C2152.3-14,2205.9-54.3,2296-54.3c136,0,210.7,105.4,210.7,300.7c0,229.9,95.8,614.9,206.9,839c268.2,542.1,791.1,950.1,1386.8,1086.1c136,30.6,243.3,40.2,455.9,42.1c360.1,0,549.7-38.3,1103.3-226c620.6-212.6,685.7-227.9,915.6-218.4c227.9,7.7,356.3,57.5,501.8,191.6c107.3,99.6,151.3,166.6,237.5,369.7c90,210.7,134.1,277.7,285.4,429.1c199.2,199.2,197.3,277.7-11.5,455.9c-588.1,501.8-1314,703-2237.3,616.8c-159-15.3-425.2-26.8-593.8-24.9c-273.9,1.9-321.8,7.7-455.9,49.8c-185.8,63.2-281.6,130.3-281.6,205c0,199.2,126.4,275.8,565.1,337.1C4828.2,4433.7,5332,4433.7,5542.7,4399.2z"
         id="path10"
         style="fill:#cccccc" /><path
         d="M8952.2,2071.9c-134.1-30.7-205-118.8-216.4-268.2c-5.7-86.2,0-116.8,38.3-172.4c124.5-185.8,408-170.5,501.9,26.8C9381.3,1880.4,9189.7,2127.5,8952.2,2071.9z"
         id="path12"
         style="fill:#cccccc" /><path
         d="M847.9,3431.9c-107.3-42.1-137.9-206.9-57.5-300.7l46-53.6h1093.7h1093.7l49.8,51.7c76.6,74.7,72.8,195.4-9.6,268.2l-59.4,53.6l-1059.3-1.9C1365,3449.1,868.9,3441.5,847.9,3431.9z"
         id="path14"
         style="fill:#cccccc" /><path
         d="M514.6,2640.8c-105.4-53.6-124.5-191.6-40.2-285.4l55.5-63.2l739.4-5.7c662.8-3.8,747-1.9,808.3,26.8c111.1,53.6,137.9,193.5,57.5,289.2l-46,53.6l-764.3,5.8C736.8,2663.8,551,2660,514.6,2640.8z"
         id="path16"
         style="fill:#cccccc" /><path
         d="M165.9,1824.8c-84.3-74.7-88.1-185.8-9.6-264.3l51.7-53.6h710.6h710.6l57.5,65.1c49.8,55.5,57.5,74.7,47.9,141.7c-5.8,42.1-28.7,93.9-51.7,116.8c-38.3,38.3-57.5,40.2-747,46l-706.8,5.8L165.9,1824.8z"
         id="path18"
         style="fill:#cccccc" /></g></g></svg>