<?xml version="1.0" encoding="UTF-8" standalone="no"?>
<!-- Generator: Adobe Illustrator 16.0.0, SVG Export Plug-In . SVG Version: 6.00 Build 0)  -->

<svg
   xmlns:dc="http://purl.org/dc/elements/1.1/"
   xmlns:cc="http://creativecommons.org/ns#"
   xmlns:rdf="http://www.w3.org/1999/02/22-rdf-syntax-ns#"
   xmlns:svg="http://www.w3.org/2000/svg"
   xmlns="http://www.w3.org/2000/svg"
   xmlns:sodipodi="http://sodipodi.sourceforge.net/DTD/sodipodi-0.dtd"
   xmlns:inkscape="http://www.inkscape.org/namespaces/inkscape"
   version="1.1"
   id="Capa_1"
   x="0px"
   y="0px"
   width="484.21px"
   height="484.21px"
   viewBox="0 0 484.21 484.21"
   style="enable-background:new 0 0 484.21 484.21;"
   xml:space="preserve"
   inkscape:version="0.48.4 r9939"
   sodipodi:docname="sum.svg"><metadata
     id="metadata41"><rdf:RDF><cc:Work
         rdf:about=""><dc:format>image/svg+xml</dc:format><dc:type
           rdf:resource="http://purl.org/dc/dcmitype/StillImage" /></cc:Work></rdf:RDF></metadata><defs
     id="defs39" /><sodipodi:namedview
     pagecolor="#ffffff"
     bordercolor="#666666"
     borderopacity="1"
     objecttolerance="10"
     gridtolerance="10"
     guidetolerance="10"
     inkscape:pageopacity="0"
     inkscape:pageshadow="2"
     inkscape:window-width="640"
     inkscape:window-height="480"
     id="namedview37"
     showgrid="false"
     inkscape:zoom="0.48739184"
     inkscape:cx="242.105"
     inkscape:cy="242.105"
     inkscape:window-x="0"
     inkscape:window-y="0"
     inkscape:window-maximized="0"
     inkscape:current-layer="Capa_1" /><g
     id="g3"
     style="fill:#cccccc"><path
       d="M395.527,97.043V55.352H124.537l159.46,171.507c9.983,10.749,9.848,27.458-0.319,38.026L126.017,428.861h269.504v-25.18   c0-15.256,12.413-27.668,27.674-27.668c15.256,0,27.681,12.412,27.681,27.668v52.848c0,15.262-12.419,27.681-27.681,27.681H61.014   c-11.106,0-21.107-6.603-25.464-16.834c-4.359-10.226-2.189-22.012,5.509-30.026l184.584-191.964L40.743,46.521   c-7.492-8.068-9.496-19.798-5.101-29.899C40.042,6.525,50.005,0,61.014,0h362.188c15.255,0,27.68,12.413,27.68,27.68v69.363   c0,15.259-12.419,27.677-27.68,27.677C407.94,124.72,395.527,112.308,395.527,97.043z"
       id="path5"
       style="fill:#cccccc" /></g><g
     id="g7" /><g
     id="g9" /><g
     id="g11" /><g
     id="g13" /><g
     id="g15" /><g
     id="g17" /><g
     id="g19" /><g
     id="g21" /><g
     id="g23" /><g
     id="g25" /><g
     id="g27" /><g
     id="g29" /><g
     id="g31" /><g
     id="g33" /><g
     id="g35" /></svg>