<?xml version="1.0" encoding="UTF-8" standalone="no"?>
<!-- Svg Vector Icons : http://www.onlinewebfonts.com/icon -->

<svg
   xmlns:dc="http://purl.org/dc/elements/1.1/"
   xmlns:cc="http://creativecommons.org/ns#"
   xmlns:rdf="http://www.w3.org/1999/02/22-rdf-syntax-ns#"
   xmlns:svg="http://www.w3.org/2000/svg"
   xmlns="http://www.w3.org/2000/svg"
   xmlns:sodipodi="http://sodipodi.sourceforge.net/DTD/sodipodi-0.dtd"
   xmlns:inkscape="http://www.inkscape.org/namespaces/inkscape"
   version="1.1"
   x="0px"
   y="0px"
   viewBox="0 0 1000 1000"
   enable-background="new 0 0 1000 1000"
   xml:space="preserve"
   id="svg2"
   inkscape:version="0.48.4 r9939"
   width="100%"
   height="100%"
   sodipodi:docname="turtle.svg"><defs
     id="defs16" /><sodipodi:namedview
     pagecolor="#ffffff"
     bordercolor="#666666"
     borderopacity="1"
     objecttolerance="10"
     gridtolerance="10"
     guidetolerance="10"
     inkscape:pageopacity="0"
     inkscape:pageshadow="2"
     inkscape:window-width="640"
     inkscape:window-height="480"
     id="namedview14"
     showgrid="false"
     inkscape:zoom="0.236"
     inkscape:cx="500"
     inkscape:cy="500"
     inkscape:window-x="0"
     inkscape:window-y="0"
     inkscape:window-maximized="0"
     inkscape:current-layer="svg2" /><metadata
     id="metadata4"> Svg Vector Icons : http://www.onlinewebfonts.com/icon <rdf:RDF><cc:Work
     rdf:about=""><dc:format>image/svg+xml</dc:format><dc:type
       rdf:resource="http://purl.org/dc/dcmitype/StillImage" /></cc:Work></rdf:RDF></metadata><g
     id="g6"
     style="fill:#cccccc"><g
       transform="translate(0.000000,349.000000) scale(0.100000,-0.100000)"
       id="g8"
       style="fill:#cccccc"><path
         d="M8126.9,1796.7c-195.4-44.1-321.8-116.9-492.3-287.4c-252.9-249-377.4-498.1-651.4-1289.3c-159-463.6-205-567.1-302.7-683.9l-46-57.5l-21.1,57.5C6533-243.6,6372.1-98,6157.5-50.1c-82.4,17.2-97.7,30.7-153.3,118.8c-78.5,128.4-229.9,302.7-377.4,433c-482.8,423.4-1161,605.4-1908.1,511.5C2117.1,810.1,1071.1-96,967.7-1373.9c-13.4-178.2,13.4-448.3,61.3-586.2c28.7-84.3,28.7-86.2-28.7-157.1c-143.7-180.1-182-402.3-99.6-590c34.5-74.7,38.3-97.7,17.2-109.2c-413.8-239.5-779.7-544.1-812.3-674.4c-17.2-70.9,5.8-139.9,65.1-195.4c46-42.1,63.2-46,147.5-38.3c53.6,5.8,151.3,24.9,220.3,40.2c233.7,55.5,756.7,28.7,827.6-42.1c23-23-67.1-191.6-220.3-411.9c-162.8-233.7-201.2-342.9-168.6-467.5c24.9-93.9,118.8-191.6,210.7-218.4c44.1-11.5,256.7-17.2,586.2-13.4c467.4,5.7,524.9,9.6,593.9,44.1c111.1,53.6,268.2,220.3,421.5,446.4c116.9,170.5,139.8,195.4,178.2,185.8c109.2-26.8,463.6-67.1,752.9-88.1c473.2-30.7,1040.3,9.6,1488.6,109.2c124.5,26.8,245.2,53.6,272,59.4c44.1,7.7,53.6-3.8,103.4-122.6c113-272,295-490.4,486.6-584.3c86.2-42.1,113-44.1,584.3-49.8c398.5-3.8,515.4,0,595.8,23c155.2,46,279.7,191.6,279.7,327.6c0,26.8-17.2,97.7-40.2,159C7215-3575.1,7148-3310.7,7146.1-2969.7c-1.9,281.6,26.8,457.9,109.2,710.7c130.3,398.5,381.3,806.6,724.2,1182l147.5,162.8l95.8-67.1c149.4-103.4,289.3-147.5,496.2-157.1c335.3-17.2,603.5,82.4,835.3,310.4c149.4,147.5,226.1,275.9,296.9,507.7c65.1,205,65.1,569,0,814.2c-157.1,607.3-570.9,1074.8-1120.7,1262.5C8542.7,1821.7,8305.1,1837,8126.9,1796.7z M8567.6,1392.5c519.2-155.2,904.2-672.4,931.1-1252.9c24.9-526.8-228-854.4-676.3-877.4c-224.2-11.5-319.9,23-475.1,180.1C8157.6-368.1,8107.8-379.6,7807-688c-254.8-258.6-385.1-417.6-547.9-664.8c-222.2-335.3-375.5-687.8-457.9-1053.7c-55.6-245.2-69-649.5-28.7-908.1c47.9-298.8,172.4-712.7,327.6-1090.1c21.1-49.8-40.2-57.5-452.1-49.8c-354.4,5.7-375.5,7.7-446.4,51.7c-116.9,72.8-229.9,268.2-364,636c-42.1,118.8-130.3,168.6-235.6,137.9c-454-130.3-716.5-182-1097.7-216.5c-411.9-36.4-881.3-19.2-1312.3,49.8c-308.4,49.8-433,53.6-480.9,13.4c-23-19.2-101.5-124.5-174.3-235.6c-74.7-111.1-166.7-239.5-206.9-287.4c-128.4-153.3-124.5-153.3-540.3-153.3c-203.1,0-369.7,3.8-369.7,9.6s47.9,78.6,105.4,160.9c203.1,289.3,302.7,576.6,251,729.9c-42.2,132.2-289.3,247.1-626.5,293.1l-180.1,24.9l182,90l182,90l383.2,7.7c300.8,5.7,444.5,17.2,666.7,57.5C3804.9-2745.6,5328-2113.3,6238-1394.9c228,182,569,486.6,701.2,630.3c170.5,183.9,235.7,316.1,419.6,856.4c310.4,904.3,486.6,1191.6,802.7,1304.6C8257.2,1430.8,8443,1428.9,8567.6,1392.5z M4580.8,593.6c168.6-38.3,404.2-130.3,555.6-218.4C5316.5,269.9,5586.6-6,5715-214.8c57.5-93.9,126.4-183.9,151.3-195.4c24.9-13.4,90-24.9,143.7-24.9c69,0,113-11.5,147.5-38.3c103.5-82.4,113-260.5,23-415.7c-120.7-205-846.8-674.3-1509.6-977.1c-1021.1-467.4-2239.6-793.1-2982.9-797c-293.1-1.9-388.9,23-421.5,111.1c-30.7,80.5-3.8,137.9,116.9,243.3c145.6,126.4,159,178.2,78.5,344.8c-162.8,337.2-122.6,839.1,103.5,1289.3C1755.1-301,2124.8,51.5,2559.7,268c327.6,164.7,814.2,304.6,1235.7,358.2C3931.4,643.4,4458.2,620.5,4580.8,593.6z"
         id="path10"
         style="fill:#cccccc" /><path
         d="M8876,599.4C8627,448,8734.2,63,9025.4,63c162.8,0,287.4,124.5,287.4,287.4s-124.5,287.4-287.4,287.4C8973.7,637.7,8914.3,622.4,8876,599.4z"
         id="path12"
         style="fill:#cccccc" /></g></g></svg>